<?xml version="1.0" encoding="utf-8"?>
<!-- Generator: Adobe Illustrator 24.3.0, SVG Export Plug-In . SVG Version: 6.00 Build 0)  -->
<svg version="1.1" id="_x2018_лой_x5F_1" xmlns="http://www.w3.org/2000/svg" xmlns:xlink="http://www.w3.org/1999/xlink"
	 x="0px" y="0px" viewBox="0 0 3200 2000" style="enable-background:new 0 0 3200 2000;" xml:space="preserve">
<style type="text/css">
	.st0{display:none;fill:#FFFFFF;}
	.st1{fill:#EBF3FA;}
	.st2{fill:#AFCDFB;}
	.st3{opacity:0.6;fill:#FFFFFF;}
	.st4{fill:#699DEE;}
	.st5{fill:#DDE7FE;}
	.st6{opacity:0.5;fill:#CDE0FB;}
	.st7{opacity:0.5;fill:#7C9AF2;}
	.st8{opacity:0.3;}
	.st9{fill:#BDD1F9;}
	.st10{fill:#F99746;}
	.st11{fill:#ED7D2B;}
	.st12{fill:#474FEA;}
	.st13{fill:#B5453C;}
	.st14{fill:#233862;}
	.st15{fill:#2B478B;}
	.st16{fill:#FCECDB;}
	.st17{fill:#548EE2;}
	.st18{fill:#F4D2B8;}
	.st19{fill:#568CDB;}
	.st20{fill:#A4C4F4;}
	.st21{fill:#ED985F;}
	.st22{fill:#FFB27D;}
	.st23{fill:#F9DDBF;}
	.st24{fill:#DD6D22;}
	.st25{fill:#FFFFFF;}
	.st26{fill:#163560;}
	.st27{fill:#1C468A;}
	.st28{fill:#EFDECE;}
	.st29{fill:#91B5F8;}
	.st30{fill:#ED975D;}
	.st31{fill:#F2CCAA;}
	.st32{fill:#C65447;}
	.st33{fill:#2C3A64;}
	.st34{fill:#2E3552;}
</style>
<rect class="st0" width="3200" height="2000"/>
<g>
	<path class="st1" d="M336.91,1845.87l903.89-4.69l240.94-0.07l79.82-0.03l241.4-0.07l1102.85-0.3c0,0,252.25-323.47-17.2-630.69
		c-279.37-318.53-415.21-59.12-501.09-507.49C2171.37-426.11,34.23,230.78,594.78,1191.19C796.62,1537,197.48,1353.2,336.91,1845.87
		z"/>
	<g>
		<g>
			<path class="st2" d="M1168.47,1610.32l-4.89-2.68c-5.22-2.86-7.14-9.43-4.28-14.64l22.46-41.01c2.86-5.22,9.43-7.14,14.64-4.28
				l7,3.83c1.02,0.56,1.4,1.84,0.84,2.87c-0.56,1.02-1.84,1.4-2.87,0.84l-7-3.83c-3.18-1.74-7.17-0.57-8.91,2.61l-22.46,41.01
				c-1.74,3.17-0.57,7.17,2.61,8.91l4.89,2.68c3.18,1.74,7.17,0.57,8.91-2.61l14.91-27.22c0.56-1.02,1.84-1.4,2.87-0.84
				c1.02,0.56,1.4,1.84,0.84,2.87l-14.91,27.22C1180.25,1611.26,1173.69,1613.18,1168.47,1610.32z"/>
		</g>
		<g>
			<path class="st2" d="M1147.63,1653.38l-8.76-4.8c-8.13-4.45-10.87-15.17-6.1-23.88l33.76-61.65c0.56-1.02,1.84-1.4,2.87-0.84
				s1.4,1.84,0.84,2.87l-33.76,61.66c-3.65,6.67-1.67,14.82,4.42,18.15l8.76,4.8c6.09,3.34,14.02,0.62,17.68-6.05l38.46-70.23
				c3.65-6.67,1.67-14.82-4.42-18.15c-1.02-0.56-1.4-1.84-0.84-2.87s1.84-1.4,2.87-0.84c8.13,4.46,10.87,15.17,6.1,23.88
				l-38.45,70.23C1166.27,1654.37,1155.77,1657.84,1147.63,1653.38z"/>
		</g>
	</g>
	<g>
		<path class="st3" d="M1991.68,1382.24H916.19c-26.44,0-47.87-21.43-47.87-47.87V431.69c0-26.44,21.43-47.87,47.87-47.87h1075.49
			c26.44,0,47.87,21.43,47.87,47.87v902.68C2039.56,1360.81,2018.12,1382.24,1991.68,1382.24z"/>
		<path class="st4" d="M2039.56,494.61H868.32v-75.05c0-19.74,16-35.74,35.74-35.74h1099.76c19.74,0,35.74,16,35.74,35.74V494.61z"
			/>
		<g>
			<path class="st5" d="M915.68,438.55c0-7.32,5.93-13.25,13.25-13.25c7.32,0,13.25,5.93,13.25,13.25c0,7.32-5.93,13.25-13.25,13.25
				C921.61,451.79,915.68,445.86,915.68,438.55z"/>
			<path class="st5" d="M971.28,438.55c0-7.32,5.93-13.25,13.25-13.25c7.31,0,13.25,5.93,13.25,13.25c0,7.32-5.93,13.25-13.25,13.25
				C977.21,451.79,971.28,445.86,971.28,438.55z"/>
			<path class="st5" d="M1026.87,438.55c0-7.32,5.93-13.25,13.25-13.25c7.32,0,13.25,5.93,13.25,13.25
				c0,7.32-5.93,13.25-13.25,13.25C1032.8,451.79,1026.87,445.86,1026.87,438.55z"/>
		</g>
		<rect x="961.14" y="582.52" class="st6" width="332.01" height="332.01"/>
		<path class="st7" d="M1647.51,607.26h-264.08c-6.93,0-12.55-5.62-12.55-12.55l0,0c0-6.93,5.62-12.55,12.55-12.55h264.08
			c6.93,0,12.55,5.62,12.55,12.55l0,0C1660.05,601.65,1654.44,607.26,1647.51,607.26z"/>
		<path class="st7" d="M1963.3,590.43h-264.08c-6.93,0-12.55-5.62-12.55-12.55l0,0c0-6.93,5.62-12.55,12.55-12.55h264.08
			c6.93,0,12.55,5.62,12.55,12.55l0,0C1975.85,584.82,1970.23,590.43,1963.3,590.43z"/>
		<g class="st8">
			<path class="st9" d="M1699.78,703.85h-320.78c-4.49,0-8.13-3.64-8.13-8.13l0,0c0-4.49,3.64-8.13,8.13-8.13h320.78
				c4.49,0,8.13,3.64,8.13,8.13l0,0C1707.91,700.21,1704.27,703.85,1699.78,703.85z"/>
			<path class="st9" d="M1821.73,703.85h-84.68c-4.49,0-8.13-3.64-8.13-8.13l0,0c0-4.49,3.64-8.13,8.13-8.13h84.68
				c4.49,0,8.13,3.64,8.13,8.13l0,0C1829.86,700.21,1826.22,703.85,1821.73,703.85z"/>
			<path class="st9" d="M1500.04,754.29h-121.03c-4.49,0-8.13-3.64-8.13-8.13l0,0c0-4.49,3.64-8.13,8.13-8.13h121.03
				c4.49,0,8.13,3.64,8.13,8.13l0,0C1508.17,750.65,1504.53,754.29,1500.04,754.29z"/>
			<path class="st9" d="M1696.08,754.29h-165.85c-4.49,0-8.13-3.64-8.13-8.13l0,0c0-4.49,3.64-8.13,8.13-8.13h165.85
				c4.49,0,8.13,3.64,8.13,8.13l0,0C1704.21,750.65,1700.57,754.29,1696.08,754.29z"/>
			<path class="st9" d="M1821.73,754.29h-84.68c-4.49,0-8.13-3.64-8.13-8.13l0,0c0-4.49,3.64-8.13,8.13-8.13h84.68
				c4.49,0,8.13,3.64,8.13,8.13l0,0C1829.86,750.65,1826.22,754.29,1821.73,754.29z"/>
			<path class="st9" d="M1543.23,797.9h-164.23c-4.49,0-8.13-3.64-8.13-8.13l0,0c0-4.49,3.64-8.13,8.13-8.13h164.23
				c4.49,0,8.13,3.64,8.13,8.13l0,0C1551.37,794.26,1547.73,797.9,1543.23,797.9z"/>
			<path class="st9" d="M1856.84,797.9h-268.6c-4.49,0-8.13-3.64-8.13-8.13l0,0c0-4.49,3.64-8.13,8.13-8.13h268.6
				c4.49,0,8.13,3.64,8.13,8.13l0,0C1864.97,794.26,1861.33,797.9,1856.84,797.9z"/>
		</g>
		<g class="st8">
			<path class="st9" d="M1699.78,864.09h-320.78c-4.49,0-8.13-3.64-8.13-8.13l0,0c0-4.49,3.64-8.13,8.13-8.13h320.78
				c4.49,0,8.13,3.64,8.13,8.13l0,0C1707.91,860.44,1704.27,864.09,1699.78,864.09z"/>
			<path class="st9" d="M1821.73,864.09h-84.68c-4.49,0-8.13-3.64-8.13-8.13l0,0c0-4.49,3.64-8.13,8.13-8.13h84.68
				c4.49,0,8.13,3.64,8.13,8.13l0,0C1829.86,860.44,1826.22,864.09,1821.73,864.09z"/>
			<path class="st9" d="M1500.04,914.52h-121.03c-4.49,0-8.13-3.64-8.13-8.13l0,0c0-4.49,3.64-8.13,8.13-8.13h121.03
				c4.49,0,8.13,3.64,8.13,8.13l0,0C1508.17,910.88,1504.53,914.52,1500.04,914.52z"/>
			<path class="st9" d="M1696.08,914.52h-165.85c-4.49,0-8.13-3.64-8.13-8.13l0,0c0-4.49,3.64-8.13,8.13-8.13h165.85
				c4.49,0,8.13,3.64,8.13,8.13l0,0C1704.21,910.88,1700.57,914.52,1696.08,914.52z"/>
		</g>
		<g>
			<path class="st9" d="M1110,632.01h34.29l92.64,212.04h-39.1l-21.35-50.83h-99.55l-21.66,50.83h-37.9L1110,632.01z
				 M1162.93,760.43l-36.39-84.21l-36.09,84.21H1162.93z"/>
		</g>
		<g>
			<rect x="961.14" y="981.4" class="st10" width="185.46" height="35.8"/>
			<rect x="961.14" y="1017.21" class="st11" width="185.46" height="35.8"/>
			<rect x="961.14" y="1053.01" class="st12" width="185.46" height="35.8"/>
		</g>
		<g>
			<path class="st9" d="M1283.25,1001.67h-102.04c-4.27,0-7.73-3.46-7.73-7.73l0,0c0-4.27,3.46-7.73,7.73-7.73h102.04
				c4.27,0,7.73,3.46,7.73,7.73l0,0C1290.98,998.21,1287.52,1001.67,1283.25,1001.67z"/>
			<path class="st9" d="M1248.87,1028.92h-67.67c-4.27,0-7.73-3.46-7.73-7.73l0,0c0-4.27,3.46-7.73,7.73-7.73h67.67
				c4.27,0,7.73,3.46,7.73,7.73l0,0C1256.6,1025.46,1253.14,1028.92,1248.87,1028.92z"/>
		</g>
		<g>
			<rect x="961.14" y="1166.52" class="st10" width="185.46" height="73.16"/>
			<rect x="961.14" y="1221.62" class="st13" width="185.46" height="52.32"/>
			<polygon class="st12" points="961.14,1166.52 1027.67,1222.41 961.14,1273.94 			"/>
		</g>
		<g>
			<path class="st9" d="M1283.25,1186.79h-102.04c-4.27,0-7.73-3.46-7.73-7.73l0,0c0-4.27,3.46-7.73,7.73-7.73h102.04
				c4.27,0,7.73,3.46,7.73,7.73l0,0C1290.98,1183.33,1287.52,1186.79,1283.25,1186.79z"/>
			<path class="st9" d="M1248.87,1214.05h-67.67c-4.27,0-7.73-3.46-7.73-7.73l0,0c0-4.27,3.46-7.73,7.73-7.73h67.67
				c4.27,0,7.73,3.46,7.73,7.73l0,0C1256.6,1210.59,1253.14,1214.05,1248.87,1214.05z"/>
		</g>
	</g>
	<g>
		<path class="st14" d="M2051.38,474.24c0,0,4.83,57.57-8.29,56.7c-13.11-0.87-39.01-26.21-91.27-22.09s-116.2,15.56-154.85-52.84
			c-38.65-68.4,49.43-88.08,49.43-88.08L2051.38,474.24L2051.38,474.24z"/>
		<polygon class="st15" points="1940.29,470.02 2203.62,491.67 2209.09,479.96 1956.64,293.61 1701.62,263.81 1696.73,274.3 
			1940.29,470.02 		"/>
		<g>
			<path class="st10" d="M2119.5,668.33c-1.55-5.42-7.21-8.56-12.63-7.01c-5.42,1.55-8.55,7.2-7,12.63
				c1.55,5.42,7.2,8.56,12.62,7.01C2117.91,679.4,2121.05,673.75,2119.5,668.33L2119.5,668.33z"/>
			<path class="st10" d="M2110.72,671.16c10.56-0.82,13.03,95.28,13.03,95.28s-6.89,3.24-10.27,2.48
				c-3.39-0.76-5.11-13.74-5.11-13.74l-0.33,13.61c0,0-11.58,0.4-15.6-2.42C2092.44,766.37,2094.01,672.47,2110.72,671.16
				L2110.72,671.16z"/>
		</g>
		<polygon class="st10" points="2114.16,673.33 2112.25,463.37 2110.89,462.35 1973.35,360.61 1968.41,367.29 2104.58,468.03 
			2107.66,672.97 		"/>
	</g>
	<g>
		<g>
			<g>
				<path class="st16" d="M2291.62,1663.88h-578.48v-219.79h580.41c46.91,0,84.94,38.03,84.94,84.94v47.98
					C2378.49,1624.99,2339.6,1663.88,2291.62,1663.88z"/>
				<path class="st4" d="M2874.73,1534.52v33.07c0,17.67-4.44,34.21-12.2,48.44c-15.59,28.62-44.58,47.85-77.77,47.85H1695.32
					c-7.21,0-13.05-6.25-13.05-13.96v-4.95c0-7.7,5.84-13.96,13.05-13.96h664.12c3.55-4.63,6.68-9.65,9.32-14.99
					c6.22-12.54,9.73-26.84,9.73-42.02v-42.03c0-7.73-0.93-15.23-2.69-22.37c-2.97-12.1-8.3-23.18-15.4-32.64h-665.08
					c-7.21,0-13.05-6.25-13.05-13.97v-4.94c0-7.72,5.84-13.97,13.05-13.97h1094.93c38.58,0,71.13,27.69,81.23,65.51
					C2873.6,1517.52,2874.73,1525.88,2874.73,1534.52z"/>
				<path class="st17" d="M2871.47,1509.6H2375.8c-2.97-12.1-8.3-23.18-15.4-32.64h-665.08c-7.21,0-13.05-6.25-13.05-13.97v-4.94
					c0-7.72,5.84-13.97,13.05-13.97h1094.93C2828.83,1444.09,2861.37,1471.77,2871.47,1509.6z"/>
			</g>
			<polygon class="st18" points="1713.14,1553.98 1793.8,1557.68 1713.14,1559.9 			"/>
			<polygon class="st18" points="1713.14,1588.47 1905.05,1592.16 1713.14,1594.39 			"/>
		</g>
		<g>
			<g>
				<g>
					<path class="st10" d="M1628.61,1834.37h567.87v-170.96H1623.6c-42.55,0-77.04,34.49-77.04,77.04v11.88
						C1546.57,1797.64,1583.3,1834.37,1628.61,1834.37z"/>
					<path class="st16" d="M2169.12,1834.37h647.21v-170.96h-648.99c-43.26,0-78.33,35.07-78.33,78.33v12.53
						C2089.02,1798.51,2124.88,1834.37,2169.12,1834.37z"/>
					<path class="st10" d="M2046.26,1834.37h791.92c6.57,0,11.9-5.33,11.9-11.9v-1.78c0-6.57-5.33-11.9-11.9-11.9h-791.92
						c-6.57,0-11.9,5.33-11.9,11.9v1.78C2034.36,1829.05,2039.69,1834.37,2046.26,1834.37z"/>
					<path class="st10" d="M2046.26,1688.98h791.92c6.57,0,11.9-5.33,11.9-11.9v-1.78c0-6.57-5.33-11.9-11.9-11.9h-791.92
						c-6.57,0-11.9,5.33-11.9,11.9v1.78C2034.36,1683.66,2039.69,1688.98,2046.26,1688.98z"/>
				</g>
				<polygon class="st18" points="2816.33,1748.9 2728.15,1751.77 2816.33,1753.5 				"/>
				<polygon class="st18" points="2816.33,1709.55 2606.55,1712.43 2816.33,1714.16 				"/>
			</g>
			<g>
				<path class="st4" d="M2608.71,1711.85c0,0,8.99,7.35,11.97,19.42c0.53,2.11,0.86,4.37,0.93,6.75c0.5,16.04,0,52.35,0,52.35
					l26.54-18.15l26.47,18.15v-49.21c0-9.3-2.27-18.36-6.49-24.28c-2.04-2.87-4.52-5.03-7.33-5.03H2608.71z"/>
				<path class="st19" d="M2608.71,1711.85c0,0,8.99,7.35,11.97,19.42l53.19,0.72c0,0-2.09-17.29-13.06-20.14H2608.71z"/>
			</g>
		</g>
		<g>
			<g>
				<g>
					<path class="st16" d="M2126.09,1444.55h-558.92v-251.17h560.96c49.6,0,89.81,40.21,89.81,89.81v69.53
						C2217.93,1403.43,2176.81,1444.55,2126.09,1444.55z"/>
					<path class="st2" d="M2218.25,1290.83v54.06c-0.14,23.09-10.84,43.12-26.56,53.83c-7.74,5.25-16.69,8.26-26.19,8.26h-615.45
						c-7.21,0-13.06,6.98-13.06,15.6v6.38c0,8.61,5.85,15.6,13.06,15.6h1063.2c30.51,0,57.47-18.11,73.75-45.83
						c10.27-17.47,16.3-38.74,16.3-61.71v-42.65c0-15.74-3.01-30.64-8.4-43.91c-13.67-33.77-42.63-57.06-76.15-57.06h-1068.7
						c-7.21,0-13.06,6.97-13.06,15.58v6.38c0,8.61,5.85,15.6,13.06,15.6h617.33c14.75,0,28.11,7.5,37.44,19.5
						C2213.07,1261.08,2218.17,1275.24,2218.25,1290.83z"/>
					<path class="st20" d="M1536.98,1422.58v6.38c0,8.61,5.85,15.6,13.06,15.6h1063.2c30.51,0,57.47-18.11,73.75-45.83h-495.3
						c-7.74,5.25-16.69,8.26-26.19,8.26h-615.45C1542.83,1406.98,1536.98,1413.96,1536.98,1422.58z"/>
				</g>
				<polygon class="st18" points="1567.17,1318.96 1646.07,1323.18 1567.17,1325.73 				"/>
				<polygon class="st18" points="1567.17,1261.16 1754.87,1265.38 1567.17,1267.92 				"/>
			</g>
			<g>
				<path class="st10" d="M1752.94,1264.54c0,0-12.39,7.96-16.49,21.06c-0.72,2.29-1.19,4.74-1.29,7.32c-0.68,17.39,0,56.76,0,56.76
					l-36.57-19.68l-36.48,19.68v-53.35c0-10.09,3.13-19.9,8.94-26.33c2.82-3.11,6.24-5.46,10.1-5.46H1752.94z"/>
				<path class="st11" d="M1752.94,1264.54c0,0-12.39,7.96-16.49,21.06l-73.29,0.78c0,0,2.88-18.75,18-21.84H1752.94z"/>
			</g>
		</g>
	</g>
	<g id="girl_2_15_">
		<path class="st21" d="M818.68,1422.33c0,0,114.57,49.92,135.36,49.01c20.8-0.91,148.94-39.03,148.94-39.03l-3.26,22.04
			c0,0-98.89,56.88-133.47,60.1c-34.04,3.18-150.43-30.55-161.67-37.67C793.35,1469.67,786.02,1429.54,818.68,1422.33z"/>
		<path class="st14" d="M801.47,1238.71c0,0-42.27-8.03-63.31,7.34c-38.13,27.85-40.18,123.85-54.47,138.15
			c-14.29,14.3-48.74,8.2-51.81,82.2c-3.07,74,13.71,80.18-6.27,113.21c-19.99,33.03,8.46,66.09,8.46,66.09s-11.65-18.23-6.66-31.4
			c0,0,4.85,29.05,23.3,35.86c18.45,6.81,21.18,11.8,24.13,21.79c0,0,157.43-80.67,157.6-137.88s30.98-113.89,15.85-138.69
			c0,0,6.74,10.61,7.56,22.41c0,0,9.08-17.39-6.66-33.58c-15.73-16.19,18.46-49.7,13.39-88.5
			C859.11,1269.06,840.42,1239.87,801.47,1238.71z"/>
		<path class="st22" d="M832.6,1476.85c-10.06,6.98-22.68,12.74-38.52,16.39c-59.37,13.72-82.12-36.46-90.67-70.91
			c8.1-4.63,15.71-5.65,20.11-6.18c4.29-0.51,8.8-0.84,12.54-1.03c6.67-5.11,16.6-26,18.8-58.45l2.79,0.75l46.79,12.81
			c0,0-2.14,14.87-3.19,28.93c-0.81,11-0.94,21.51,1.14,24.09c3.65,0.79,5.84,1.31,5.84,1.31s0,0.02,0.02,0.04
			C808.9,1425.63,822.47,1447.96,832.6,1476.85z"/>
		<path class="st21" d="M804.46,1370.24c0,0-2.15,14.86-3.19,28.93c-26.51-2.65-38.81-27.89-43.6-41.74L804.46,1370.24z"/>
		<path class="st22" d="M812.37,1384.2c0,0-62.92-3.47-60.16-42.62c2.77-39.15-3.49-65.97,36.8-65.4
			c40.29,0.56,47.03,16.05,49.29,29.34C840.56,1318.81,828.81,1384.09,812.37,1384.2z"/>
		<path class="st14" d="M837.99,1283.62c-8.87-12.47-16.4-10.41-20.76-7.17c-33-21.35-57.13,4.98-57.13,4.98
			c-6.22,27.79-27.63,42.43-27.63,42.43s10.95,7.9,37.84,3c8.22-1.5,15.83-6.71,22.45-13.23c-11.97,17.15-27.44,29.01-27.44,29.01
			c32.59-12.32,48.4-55.28,50-59.83c3.59,3.72,10.62,11.75,12.39,19.25c2.42,10.19,12.85,26.13,18.88,25.86
			C846.59,1327.92,851.3,1302.32,837.99,1283.62z"/>
		<path class="st23" d="M685.5,1604.78c-5.68-29.05-24.21-145.1-5.68-182.44c6.65-13.42,32.76-14.63,61.41-13.45
			c8.91,5.75,42.88,27.5,56.83,24.79c0.15-0.03,0.42-0.09,0.78-0.18c6.57-1.64,9.05-6.26,3.57-10.24
			c-0.01-0.01,14.19-1.37,31.81,1.95c9.95,1.87,36.79,15.76,36.79,15.76s-13.52,24.42-33.45,32.85
			c3.39,30.32-1.65,43.69-33.1,113.72c-26.58,59.19,3.59,112.48,3.59,112.48s-156.46,125.79-157.33,61.74
			C650.06,1713.54,692.76,1641.9,685.5,1604.78z"/>
		<path class="st24" d="M815.8,1836.8c8.51-0.96,16.17-5.62,20.93-12.74c0.75-1.13,1.56-2.34,2.42-3.64
			c17.81-26.96,24.74-109.52,64.8-197.48c9.76-21.41,44.78-25.26,54.33-49.47c0,0,23.51-78.46-44.99-80.78
			c-68.5-2.31-183.45,218.31-185.26,241.45C726.26,1756.55,682.73,1851.81,815.8,1836.8z"/>
		<path class="st14" d="M1088.04,1834.99h-97.49c0,0-3.65-15.55,2.76-26.13c5.67-9.36,3.49-14.7-0.7-22.44
			c4.42,1.81,10.13,3.45,16.42,3.09c4.86-0.28,9.99-2.48,14.5-5.1c4.2,4.78,22.16,25.15,27.78,29.18
			C1057.67,1818.17,1086.08,1816.54,1088.04,1834.99z"/>
		<path class="st11" d="M960.5,1515.37c5.87,44.01,28.8,182.92,69.24,250.69c13.04,21.85-32.85,34.1-33.1,34.03
			c-6.15-1.61-16.41-11.42-21.13-15.68c-32.83-29.59-99.48-113.37-99.48-180.54c0-32.75-0.58-95.3,23.24-111.2
			C913.93,1482.88,958.17,1497.88,960.5,1515.37z"/>
		<path class="st10" d="M757.66,1834.99c0,0,3.61-5.03,9.91-14.58c7.5-11.36,15.79-33.7,25.86-62.35
			c10.58-30.07,23.12-67.07,38.8-105.57c4.84-11.88,9.98-23.91,15.44-35.92c9.76-21.41,36.6-18.45,46.15-42.66
			c0,0,37.26-83.92-31.23-86.23c-68.5-2.31-198.66,224.49-206.14,246.46C648.26,1758.18,608.31,1858.03,757.66,1834.99z"/>
		<path class="st15" d="M1016.48,1834.99h-97.49c0,0-3.64-15.55,2.76-26.13c5.67-9.36,3.49-14.7-0.7-22.44
			c4.42,1.81,10.13,3.45,16.42,3.09c4.86-0.28,9.99-2.48,14.5-5.1c4.2,4.78,22.16,25.15,27.78,29.18
			C986.1,1818.17,1014.51,1816.54,1016.48,1834.99z"/>
		<path class="st11" d="M793.43,1758.06c10.58-30.07,23.12-67.07,38.8-105.57c-4.09-29.17-12.93-54.68-27.78-64.97
			C804.45,1587.53,768.43,1699.14,793.43,1758.06z"/>
		<path class="st10" d="M903.59,1512.25c5.87,44.01,14.14,186.04,54.58,253.81c13.04,21.85-32.85,34.1-33.1,34.03
			c-6.15-1.61-16.41-11.42-21.13-15.68c-32.83-29.59-99.48-113.37-99.48-180.54c0-32.75,38.44-92.68,62.25-108.58
			C881.38,1485.5,901.26,1494.76,903.59,1512.25z"/>
		<path class="st25" d="M824.15,1361.68c0,0-5.95-2.35-22.69-1c0,0,0.89,6.53,13.23,7.18
			C821.69,1368.23,824.15,1361.68,824.15,1361.68z"/>
		<g>
			<g>
				<polygon class="st26" points="1115.21,1386.19 1095,1349.72 1051.28,1471.74 1077.07,1499.43 				"/>
				<polygon class="st27" points="1009.68,1407.55 969.03,1523.67 1077.07,1499.43 1115.21,1386.19 				"/>
				<polygon class="st28" points="971.19,1517.81 969.29,1514.5 1007.75,1404.61 1009.68,1407.55 				"/>
				<polygon class="st16" points="1007.75,1404.61 1110.18,1384.68 1115.21,1386.19 1009.68,1407.55 				"/>
			</g>
			<polygon class="st28" points="1115.21,1386.19 1093.36,1351.5 1079.42,1390.67 1110.18,1384.68 			"/>
		</g>
		<path class="st22" d="M1040.87,1424.37c-3.51-0.68-11.05-3.52-18.68-5.62c2.28-1.77,4.81-3.94,5.52-6.17
			c1.36-4.3,2.27-5.68-2.27-4.32c-4.54,1.36-20.42,8.65-20.42,8.65s0.03,0.02,0.04,0.02c-9.02,2.64-17.34,15.39-17.34,15.39
			s-111.7,39.27-125.14,39.94c-20.79,1.04-159.17-49.92-159.17-49.92c-32.66,7.21-25.33,47.33-14.09,54.45
			s110.81,43.34,169.82,44.02c29.89,0.35,138.61-69.53,138.61-69.53s12.71-5.81,22.69-3.99s33.13,0,38.12-8.17
			C1063.56,1430.95,1046.77,1425.5,1040.87,1424.37z"/>
		<path class="st23" d="M774.71,1447.46c0,0-12.38,39.18-54.88,48.09c0,0-70.19-21.62-35.24-69.44
			C684.59,1426.12,719.14,1400.44,774.71,1447.46z"/>
		<path class="st22" d="M1113.4,1427.32L1113.4,1427.32c0.02-1.08-0.09-2.15-0.38-3.18c0,0-10.01-15.84-13.29-16.48
			c-9.99-1.97-9.99,11.18-7.87,19.66c1.48,5.91,5.23,11.58,8.27,14.64l0,0l-0.4,12.39C1116.6,1445.08,1113.4,1427.32,1113.4,1427.32
			z"/>
	</g>
	<g>
		<path class="st1" d="M526.96,1220.51c3.99-98.75-78.78-142.63-163.41-142.63c-84.63,0-176.73,21.93-184.71,153.24
			c-5.13,84.48,39.9,136.46,169.57,136.46c43.73,0,77.72-6.9,103.76-19.2l64.82,57.6l-31.85-79.62
			C513.35,1300.13,525.24,1263.13,526.96,1220.51z"/>
		<g>
			<path class="st29" d="M299.25,1187.5v23.07h15.09v-23.07h6.15v53.8h-6.15v-25.15h-15.09v25.15h-6.15v-53.8H299.25z"/>
			<path class="st29" d="M333.57,1222.54c0,11.9,4.71,14.37,9.1,14.37c2.71,0,4.87-0.64,6.39-1.44l1.04,4.47
				c-2.16,1.12-5.43,1.84-8.54,1.84c-9.26,0-14.05-7.58-14.05-19.4c0-12.45,5.35-20.28,13.09-20.28c7.82,0,11.02,8.3,11.02,16.92
				c0,1.52-0.08,2.55-0.16,3.51H333.57z M345.71,1217.99c0.08-7.66-2.79-11.1-5.75-11.1c-4.07,0-6.07,5.83-6.31,11.1H345.71z"/>
			<path class="st29" d="M358.24,1186.06h6.15v55.24h-6.15V1186.06z"/>
			<path class="st29" d="M373.49,1186.06h6.15v55.24h-6.15V1186.06z"/>
			<path class="st29" d="M412.45,1221.98c0,14.93-6.87,19.96-12.85,19.96c-6.95,0-12.53-6.31-12.53-19.88
				c0-14.05,6.31-19.96,12.93-19.96C406.94,1202.1,412.45,1208.57,412.45,1221.98z M393.21,1221.98c0,6.39,1.12,15.09,6.71,15.09
				c5.27,0,6.39-9.02,6.39-15.09c0-5.91-1.12-15.01-6.55-15.01C394.24,1206.97,393.21,1216.07,393.21,1221.98z"/>
		</g>
	</g>
	<g>
		<path class="st29" d="M2222.2,924.14c3.65-90.28-72.02-130.39-149.39-130.39c-77.37,0-161.57,20.05-168.87,140.09
			c-4.69,77.23,36.48,124.75,155.03,124.75c39.98,0,71.06-6.31,94.86-17.55l59.26,52.66l-29.12-72.79
			C2209.76,996.93,2220.63,963.1,2222.2,924.14z"/>
		<g>
			<path class="st25" d="M1983.2,908.48c2.16-0.54,4.66-0.88,7.56-0.88c4.12,0,7.63,0.88,10.06,3.17c1.96,1.82,2.97,4.52,2.97,7.77
				c0,4.66-2.57,8.31-7.02,10.06v0.2c5.27,1.42,8.44,5.67,8.44,11.61c0,3.78-1.22,6.82-3.24,9.05c-2.57,2.9-6.82,4.12-12.02,4.12
				c-3.31,0-5.33-0.2-6.75-0.47V908.48z M1988.34,927.11h2.36c4.25,0,7.9-3.24,7.9-8.04c0-4.19-1.96-7.43-7.5-7.43
				c-1.22,0-2.16,0.13-2.77,0.34V927.11z M1988.34,949.2c0.61,0.14,1.49,0.27,2.63,0.27c5.33,0,8.85-3.17,8.85-9.05
				c0-6.28-4.32-9.25-9.18-9.32h-2.3V949.2z"/>
			<path class="st25" d="M2031.42,936.97c0,12.63-5.81,16.88-10.87,16.88c-5.88,0-10.6-5.33-10.6-16.81
				c0-11.88,5.33-16.88,10.94-16.88C2026.76,920.16,2031.42,925.63,2031.42,936.97z M2015.14,936.97c0,5.4,0.95,12.76,5.67,12.76
				c4.46,0,5.4-7.63,5.4-12.76c0-5-0.95-12.69-5.54-12.69C2016.02,924.28,2015.14,931.98,2015.14,936.97z"/>
			<path class="st25" d="M2037.23,929.07c0-3.85-0.2-5.81-0.27-8.44h4.52l0.27,3.98h0.13c1.42-2.63,4.05-4.46,7.5-4.46
				c4.52,0,7.9,3.31,7.9,11.21v21.95h-5.2v-21c0-3.92-0.74-7.77-4.52-7.77c-2.16,0-4.25,1.82-4.86,5.27
				c-0.2,0.81-0.27,1.82-0.27,2.97v20.53h-5.2V929.07z"/>
			<path class="st25" d="M2059.04,962.7c1.49-0.41,3.31-0.95,4.39-2.57c1.15-1.76,1.55-4.19,1.55-10.4v-29.1h5.2v30.59
				c0,6.89-1.01,10.06-3.31,12.49c-1.96,2.03-5.13,3.04-7.16,3.11L2059.04,962.7z M2070.66,912.19c0,2.03-1.22,3.38-3.11,3.38
				c-1.76,0-3.04-1.35-3.04-3.38s1.35-3.38,3.11-3.38C2069.44,908.82,2070.66,910.17,2070.66,912.19z"/>
			<path class="st25" d="M2097.33,936.97c0,12.63-5.81,16.88-10.87,16.88c-5.88,0-10.6-5.33-10.6-16.81
				c0-11.88,5.33-16.88,10.94-16.88C2092.67,920.16,2097.33,925.63,2097.33,936.97z M2081.05,936.97c0,5.4,0.94,12.76,5.67,12.76
				c4.46,0,5.4-7.63,5.4-12.76c0-5-0.95-12.69-5.54-12.69C2081.93,924.28,2081.05,931.98,2081.05,936.97z"/>
			<path class="st25" d="M2122.72,944.4c0,3.58,0.2,6.48,0.27,8.91h-4.52l-0.41-3.44h-0.13c-0.95,1.62-3.44,3.98-6.96,3.98
				c-5.67,0-7.97-4.46-7.97-12.56v-20.66h5.2v19.92c0,5.13,0.81,8.91,4.39,8.91c3.04,0,4.39-2.84,4.66-4.32
				c0.2-0.88,0.27-1.89,0.27-2.97v-21.54h5.2V944.4z"/>
			<path class="st25" d="M2129.95,929.07c0-2.77-0.2-6.01-0.27-8.44h4.66l0.27,5.2h0.13c1.08-3.11,3.85-5.67,6.89-5.67
				c0.41,0,0.74,0,1.08,0.07v5.27c-0.34,0-0.68,0-1.08,0c-3.31,0-5.74,3.04-6.28,6.75c-0.14,0.88-0.2,1.89-0.2,2.97v18.1h-5.2
				V929.07z"/>
		</g>
	</g>
	<g>
		<path class="st14" d="M2198.12,1400.48c18.36,32.48,41.65,45.14,41.65,45.14l97.26,0.69
			C2337.04,1446.3,2184.11,1375.7,2198.12,1400.48z"/>
		<g>
			<path class="st22" d="M2271.06,1651.32c2.51,2.92,2.81,6.17,1.54,9.63c0,0.01-0.01,0.04-0.03,0.05
				c-2.37,6.39-10.08,13.5-19.03,20.58c-1.14,0.91-2.16,1.74-3.05,2.51c-0.23,0.2-0.47,0.4-0.68,0.61
				c-0.18,0.16-0.35,0.32-0.53,0.47c-8.36,7.59-5.24,9.37-20.27,24.79c-17.13,17.57-28.84,17.81-32.16,16.17
				c-2.81-1.39,2.98-10.74,9.4-21.24c0.31-0.51,0.62-1.02,0.93-1.53c0.85-1.4,1.7-2.81,2.55-4.22c7.52-12.64,5.66-18.61,4.03-37.52
				c-1.32-15.36-23.28-85.94-23.28-85.94l32.63-5.38c0,0,9.42,56.14,20.17,64.85c5.75,4.64,12.22,4.75,17.76,8.2
				c0.39,0.24,0.78,0.49,1.15,0.74C2265.33,1646.21,2268.54,1648.39,2271.06,1651.32z"/>
			<path class="st14" d="M2271.06,1651.32c2.51,2.92,2.81,6.17,1.54,9.63c0,0.01-0.01,0.04-0.03,0.05
				c-2.89,6.38-10.41,13.45-19.06,20.52c-1.13,0.93-2.13,1.78-3.02,2.57c-0.23,0.2-0.47,0.4-0.68,0.61
				c-0.18,0.16-0.35,0.32-0.53,0.47c-8.36,7.59-5.24,9.37-20.27,24.79c-17.13,17.57-28.84,17.81-32.16,16.17
				c-2.81-1.39,2.98-10.74,9.4-21.24c3.32-1.19,18.74-7.33,30.47-22.12c10.33-13,17.28-29.74,24.32-39.41
				c0.39,0.24,0.78,0.49,1.15,0.74C2265.33,1646.21,2268.54,1648.39,2271.06,1651.32z"/>
			<path class="st22" d="M2008.41,1629.11c-2.08,10.05-16.41,8.27-32.4,4.24c-15.99-4.03-12.22,0.65-35-2.03
				c-22.78-2.68-29.63-11.23-30.3-14.63c-0.6-3.01,10.67-3.99,22.77-5.3c1.52-0.16,3.05-0.34,4.58-0.51
				c13.66-1.62,23.71-10.35,36.15-17.49c11.79-6.77,29.5-34.55,29.5-34.55l31.25,2.7c0,0-16.58,24.81-23.01,35.6
				c-3.78,6.35-3.64,14.78-3.22,21.29C2008.95,1621.96,2009.15,1625.57,2008.41,1629.11z"/>
			<path class="st14" d="M1976.01,1633.35c-15.99-4.03-12.22,0.65-35-2.03c-22.78-2.68-29.63-11.23-30.3-14.63
				c-0.6-3.01,10.67-3.99,22.77-5.3l0.11,0.23c0,0,13.61,9.79,32.58,10.38c15.47,0.49,31.88-3.83,42.56-3.58
				c0.22,3.54,0.42,7.16-0.32,10.69C2006.33,1639.16,1992,1637.38,1976.01,1633.35z"/>
			<path class="st14" d="M2129.66,1430.02l28.68,78.86l37.44,102.97c0,0,10.35,1.07,20.29-1.71c9.15-2.57,19.68-9.41,19.68-9.41
				s-9.82-110.35-29.14-173.79c-4.95-16.28-10.54-29.47-16.75-36.91C2159.45,1353.61,2129.66,1430.02,2129.66,1430.02z"/>
			<path class="st15" d="M2160.26,1305.31c19.19-6.04,73.76,2.27,128.55,13.4l11.62-18.87l118.57-8.42c0,0,38.49,87,16.7,142.11
				c-3.2,8.1-11.02,11.47-21.68,11.57c0,0.01-0.01,0.01-0.01,0.02c0,0-70.73,1.23-93.63,1.07c-58.94-0.42-124.44-41.39-132.94-43.16
				c-13.91-2.88-19.68,24.94-33.82,54.09c-14.14,29.16-131.87,128.63-131.87,128.63s-17.99,0.05-25.4-2.79
				c-7.97-3.05-10.86-6.96-10.86-6.96S2116.97,1318.94,2160.26,1305.31z"/>
			<path class="st14" d="M2302.27,1136.65c42.04,23.53,127.31,72.31,127.76,72c0,0,31.38,12.08,49.32,0.35
				c29.89-19.55,46.22-72.62-7.87-118.77c-26.98-23.02-46.22-28.71-48.89-65.17c-1.45-19.78-28.02-85.23-72.97-79.51
				c-3.76,0.48-7.54,0.81-11.32,0.66c-5.24-0.21-13.91,0.5-22.83,5.72C2289.95,966.88,2239.07,1127.21,2302.27,1136.65z"/>
			<path class="st22" d="M2337.78,1117.12c-0.19,0.12,20.71,7.42,34.76,1.31c13.22-5.73,23.36-27.34,23.16-27.35
				c-5.99-0.32-12.54-5.61-17.36-40.03l-2.56,0.9l-43.03,15.14c0,0,3.01,13.79,4.93,26.92
				C2339.3,1105.02,2340.14,1115.58,2337.78,1117.12z"/>
			<path class="st30" d="M2332.76,1067.08c0,0,1.83,9.67,4.38,23.48c24.68-4.26,35.08-25.32,38.65-38.62L2332.76,1067.08z"/>
			<path class="st22" d="M2326.27,1080.71c0,0,58.78-7.47,53.56-44c-5.21-36.53-1.14-62.1-38.89-58.88
				c-37.75,3.22-43.04,18.2-44.26,30.82C2295.46,1021.27,2310.84,1081.71,2326.27,1080.71z"/>
			<path class="st14" d="M2298.97,988.66c0,0,37.36,32.66,62.91,35.45c25.55,2.79,35.29-5.35,35.29-5.35s-14.98-12.62-23.91-32.88
				c-2.63-5.97-8.25-10.1-14.75-10.7C2340.26,973.48,2305.66,972.51,2298.97,988.66z"/>
			<path class="st14" d="M2322.49,985.92c0,0-12.66,12.07-16.69,21.06c-3.88,8.68-5.18,29.48-2.19,37.77c0,0-19.33-38.24-8.1-56.67
				C2307.41,968.54,2322.49,985.92,2322.49,985.92z"/>
			<path class="st23" d="M2287.73,1203.27c0.94,118.88-0.18,94.03,12.75,105.41c3.11,2.74,11.91,4.42,23.5,5.27
				c36.43,2.68,100.55-2.88,103.03-9.6c8.57-23.25,2.69-30.53,9.95-66.16c0.76-3.79,1.69-7.89,2.79-12.36
				c6.02-24.47,11.77-32.76-8.7-72.29c-18.57-35.8-37.91-64.88-39.67-63.85c-49.85,29.12-53.68,4.32-53.68,4.32
				S2287.26,1145.29,2287.73,1203.27z"/>
			<path class="st15" d="M2158.33,1508.88l37.44,102.97c0,0,10.35,1.07,20.29-1.71c9.15-2.57,19.68-9.41,19.68-9.41
				s-9.82-110.35-29.14-173.79L2158.33,1508.88z"/>
			<path class="st23" d="M2337.69,1094c0,0-51.14,8.3-57.3,30.25c-6.15,21.95-42.36,151-42.36,151s25.94,4.85,38.02-7.06
				s42.53-111,42.53-111L2337.69,1094z"/>
			<path class="st31" d="M2323.97,1313.94c36.43,2.68,100.55-2.88,103.03-9.6c8.57-23.25,2.69-30.53,9.95-66.16l-17.23-49.63
				c0,0,2.52,55.15-13.84,69.53c-16.34,14.38-66.76,27.52-74.75,39.58C2327.28,1303.45,2324.73,1309.27,2323.97,1313.94z"/>
			<path class="st22" d="M2365.9,1291.05c0,0-35.9-8.26-41.73-5.11c-5.82,3.15-20.09,14.67-21.89,18.7
				c-1.8,4.03,12.94-2.98,17.73-4.23c3.1-0.81,11.23,2.08,15.25,3.45c16.93,5.78,27.35,2.94,27.35,2.94L2365.9,1291.05z"/>
			<path class="st23" d="M2391.4,1089.66c0,0,48.26,3.32,64.81,26.75c23.3,32.98,68.99,173.17,42.1,191.64
				c-30.27,20.79-137.15,4.53-137.15,4.53s-3.44-16.67,1.57-24.68c5.01-8.01,85.6-20.45,89.34-24.14
				c3.74-3.69-45.93-72.77-45.85-83.92C2406.31,1168.69,2391.4,1089.66,2391.4,1089.66z"/>
			<path class="st22" d="M2322.36,1295.94c0,0-7.6,9.67-10.08,10.81c-2.48,1.14-4.07,0.84-4.07,0.84l5.14-9.1L2322.36,1295.94z"/>
			<path class="st22" d="M2324.17,1285.94l-21.98,10.48c0,0,0.92,1.53,3.62,1.43c2.7-0.1,9.52-2.54,9.52-2.54L2324.17,1285.94z"/>
		</g>
		<g>
			<g>
				<polygon class="st10" points="2316.96,1322.43 2143.68,1321.21 2092.47,1191.22 2265.48,1192.44 				"/>
				<polygon class="st11" points="2141.68,1316.15 2370.51,1317.76 2370.47,1322.81 2143.68,1321.21 				"/>
			</g>
			<path class="st25" d="M2187.88,1256.71c-1.27-4.57,1.39-8.24,5.94-8.21c4.56,0.03,9.28,3.76,10.56,8.33
				c1.27,4.57-1.39,8.24-5.94,8.21S2189.15,1261.27,2187.88,1256.71z"/>
		</g>
	</g>
	<g>
		
			<rect x="1474.77" y="1520.61" transform="matrix(1.958630e-04 -1 1 1.958630e-04 -257.0573 3310.6179)" class="st32" width="104.67" height="526.5"/>
		<path class="st16" d="M1263.84,1836.15l-77.38-33.1l-45.01-19.25l46.07-19.69l76.35-32.63c0,0,10.19,25.49,10.34,49.45
			C1274.45,1818.54,1263.84,1836.15,1263.84,1836.15z"/>
		<path class="st16" d="M1851.56,1766.31l-0.01,33.09c0,20.35-16.51,36.85-36.86,36.85l-24.35,0l0.02-104.67l26.49,0
			C1836.03,1731.59,1851.57,1747.14,1851.56,1766.31z"/>
		<path class="st15" d="M1187.52,1764.11c1.92,10.58,3.58,26.78-1.06,38.94l-45.01-19.25L1187.52,1764.11z"/>
	</g>
	<g>
		<path class="st10" d="M1377.04,1186.52c0,0,9.43,40.92,36.92,40.92c23.56,0,55.89-53.26,55.89-53.26L1377.04,1186.52z"/>
		<path class="st15" d="M1692.65,1790.91l-17.66,12.14c0,0-84.94-90.54-105.45-177.32c-3.66-15.5-5.14-30.78-3.57-45.28
			c0,0-1.24-3.93-3.41-10.88c-0.1-0.3-0.19-0.62-0.29-0.93c-0.95-3.05-2.09-6.64-3.35-10.7c-4.12-13.11-9.78-31.06-16.22-51.49
			c-14.85-47.02-48.8-153.06-63.31-197.16l104.28-37.73c0,0,11.84,27.01,28.86,100.42c2.62,9.58,5.25,20.18,7.7,31.72
			c2.78,13.08,5.38,27.37,7.54,42.82c3.66,26.17,6.1,55.61,6.25,87.9c0.06,13.14-0.26,26.76-1.04,40.81
			c-0.57,10.31,0.96,24.04,3.83,39.66C1649.95,1686.33,1692.65,1790.91,1692.65,1790.91z"/>
		<path class="st14" d="M1748.21,1834.54h-84.31c0,0-3.15-13.45,2.38-22.6c4.9-8.1,3.02-12.71-0.61-19.41
			c3.82,1.56,8.76,2.99,14.2,2.67c4.2-0.24,8.64-2.15,12.54-4.41c3.63,4.14,19.17,21.75,24.02,25.23
			C1721.95,1820,1746.51,1818.59,1748.21,1834.54z"/>
		<path class="st14" d="M1627.77,1446.54l-65.5,122.11c-0.95-3.05-2.09-6.64-3.35-10.7c-4.12-13.11-9.78-31.06-16.22-51.49
			c-14.85-47.02-48.8-153.06-63.31-197.16l104.28-37.73c0,0,11.84,27.01,28.86,100.42c2.62,9.58,5.25,20.18,7.7,31.72
			C1623.02,1416.79,1625.61,1431.09,1627.77,1446.54z"/>
		<path class="st14" d="M1477.69,1808.15c0,0-5.84,14.32-0.34,26.39h45.86c0,0,0.95-10.89-15.69-23.51
			C1494.92,1801.47,1477.69,1808.15,1477.69,1808.15z"/>
		<path class="st33" d="M1527.6,875.99c0.03-2.28,1.2-26.9,38.6-29.08c0,0-18.35,2.64-21.34,10.81c0,0,12.29-10.3,22.58-7.33
			c10.28,2.97,16.71,20.71,16.91,26.59c0.2,5.88-5.01,24.98-11.45,26.74c-2.44,0.67-5.27,0.57-7.84,0.2
			c1.79,2.65,3.55,5.58,5.24,8.85c15.67,30.3,2.15,65.99-10.57,62.98c-8.16-1.93-13.12,12.21-13.12,12.21l-78.48-67.49
			C1468.12,920.47,1495.62,859.9,1527.6,875.99z"/>
		<path class="st22" d="M1478.27,1081.05c8.7,6.04,19.61,11.01,33.31,14.17c51.34,11.86,71.02-31.53,78.41-61.32
			c-7-4.01-13.59-4.89-17.39-5.34c-3.71-0.44-7.61-0.73-10.85-0.89c-5.77-4.42-14.36-22.49-16.25-50.55l-2.42,0.65l-40.46,11.07
			c0,0,1.85,12.86,2.76,25.02c0.7,9.51,0.81,18.61-0.99,20.83c-3.16,0.68-5.05,1.13-5.05,1.13s0,0.01-0.02,0.04
			C1498.76,1036.77,1487.03,1056.07,1478.27,1081.05z"/>
		<path class="st21" d="M1502.61,988.86c0,0,1.86,12.85,2.76,25.02c22.92-2.29,33.56-24.12,37.7-36.09L1502.61,988.86z"/>
		<path class="st22" d="M1502.14,1008.17c0,0,52.78-13.56,43.83-46.3c-8.95-32.74-8.17-56.54-42.25-49.26
			c-34.08,7.27-37.18,21.55-36.85,33.2S1488.18,1010.85,1502.14,1008.17z"/>
		<path class="st33" d="M1463.43,927.18c5.42-12.08,12.15-11.6,16.4-9.58c24.38-23.68,49.3-5.41,49.3-5.41
			c9.96,22.52,30.59,31.32,30.59,31.32s-7.95,8.55-31.59,8.93c-7.22,0.12-14.56-3.02-21.27-7.43
			c13.05,12.52,28.17,19.97,28.17,19.97c-29.72-4.95-50.38-38.72-52.5-42.31c-2.42,3.76-7.02,11.75-7.26,18.42
			c-0.33,9.05,3.2,26.53-1.96,27.32C1473.31,968.41,1455.31,945.29,1463.43,927.18z"/>
		<path class="st22" d="M1486.96,1033.11c0,0,88.64-21.52,127.18,10.27l-19.26,268.63l-173.36-41.88c0,0,4.88-17,38.12-62.2
			C1492.88,1162.73,1478.42,1096.43,1486.96,1033.11z"/>
		<path class="st15" d="M1538.63,1282.11c0,0-0.1,0.91-0.28,2.65c-0.08,0.75-0.18,1.65-0.29,2.7c-0.75,6.96-2.16,20.32-3.98,37.69
			c-4.76,45.56-12.22,118.73-17.31,176.49c-3.98,45.16-6.51,80.9-5.14,86.64c4.1,17.27,0,223.71,0,223.71
			c-14.73,7.07-37.07,0-37.07,0s-39.25-186.04-33.75-211.89c5.49-25.86-3.67-47.93-3.67-47.93
			c-30.47-141.91-27.14-220.57-21.08-258.22c1.76-10.95,3.75-18.43,5.21-22.99c1.23-3.88,2.09-5.65,2.09-5.65
			C1490.56,1247.22,1538.63,1282.11,1538.63,1282.11z"/>
		<path class="st10" d="M1626.09,1120c-4.28,32.32-21.4,71.86-27.51,93.15c0,0,10.22,73.9,0.46,94.2c-1.11,2.32-2.48,3.93-4.16,4.66
			c-36.15,15.75-176.92,0.46-182.86-44.96c-2.16-16.5,53.62-74.54,56.87-81.58c1.35-2.91,2.79-12.36-3.75-31.92
			c-9.27,28.58-60.43,20.36-60.43,20.36c6-10.28,20.97-81.36,37.67-113.45c12.56-24.12,46.09-27.62,46.09-27.62
			s13.96,22.14,47.71,19c33.75-3.14,39.93-23.8,39.93-23.8s29.94,3.98,39.16,11.42C1616.86,1040.75,1631.7,1077.66,1626.09,1120z"/>
		<path class="st11" d="M1598.58,1213.15c0,0,10.22,73.9,0.46,94.2c-26.34-13.22-47.09-48.98-42.3-88.81
			c3.54-29.45,8.81-36.16,24.56-53.01c11.58-12.38,38.34-13.08,36.24-7.19C1611.3,1175.87,1601.81,1201.91,1598.58,1213.15z"/>
		<g>
			<polygon class="st27" points="1488.64,1125.76 1549,1222.59 1446.3,1222.59 1388.79,1127.85 			"/>
			<polygon class="st28" points="1545.86,1217.73 1546.9,1214.35 1489.79,1122.71 1488.64,1125.76 			"/>
			<polygon class="st16" points="1489.79,1122.71 1393.04,1125.46 1388.79,1127.85 1488.64,1125.76 			"/>
			<polygon class="st26" points="1388.79,1127.85 1334.51,1098.47 1397.78,1197.83 1446.3,1222.59 			"/>
		</g>
		<path class="st22" d="M1676.01,1195.71c-5.81,2.66-20.74,20.23-26.06,22.02c-23.95,8.01-125.87-13.31-125.87-13.31l3.16-17.85
			c0,0,100.04,2.66,111.03-0.29c2.07-0.56,12.88-17.47,17.04-19.89L1676.01,1195.71z"/>
		<path class="st22" d="M1527.24,1186.56c0,0-12.06-9.82-20.21-7.6c-8.15,2.22-20.15,12.53-24.6,14.97
			c-4.45,2.44-16.55,11.17-10.42,16.45c6.13,5.28,25.23,0.75,32.79-3.3c7.56-4.05,19.29-2.67,19.29-2.67L1527.24,1186.56z"/>
		<path class="st22" d="M1509.34,1178.65c0,0-14.66-1.75-18.67-1.67c-4,0.08-2.92,0.96-0.71,4.07c2.21,3.11,9.84,4.29,10.19,5.38
			S1509.34,1178.65,1509.34,1178.65z"/>
		<path class="st10" d="M1576.1,1028.04c0,0,43.48,5.16,55.45,23.8c15.14,23.57,50.86,117.46,49.71,141.12
			c0,0-26.12,44.45-115.67,37.33c0,0-9.32-32.91,9.52-43.78c0,0,46-8.18,51.3-12.85l-37.5-68.16L1576.1,1028.04z"/>
		<path class="st22" d="M1402.7,1163.25c-1.35-5.48-13.29-2.06-17.32,1.1c-0.98,0.77-2.03,2.07-3.06,3.6
			c-0.13-0.92-0.23-1.79-0.29-2.48c-0.23-2.57-3.22-7.18-3.97-3.73c-0.74,3.45-1.97,17.95-1.97,17.95
			c-0.15,11.68,7.36,16.5,12.18,12.7S1404.04,1168.73,1402.7,1163.25z"/>
	</g>
	<path class="st34" d="M2998.54,1843.87H260.11c-1.94,0-3.53-1.59-3.53-3.53v-2.31c0-1.94,1.59-3.53,3.53-3.53h2738.42
		c1.94,0,3.53,1.59,3.53,3.53v2.31C3002.07,1842.29,3000.48,1843.87,2998.54,1843.87z"/>
</g>
</svg>
