<?xml version="1.0" encoding="UTF-8"?>
<!DOCTYPE svg PUBLIC "-//W3C//DTD SVG 1.1//EN" "http://www.w3.org/Graphics/SVG/1.1/DTD/svg11.dtd">
<!-- Creator: CorelDRAW -->
<svg xmlns="http://www.w3.org/2000/svg" xml:space="preserve" width="22in" height="22in" style="shape-rendering:geometricPrecision; text-rendering:geometricPrecision; image-rendering:optimizeQuality; fill-rule:evenodd; clip-rule:evenodd"
viewBox="0 0 22 22"
 xmlns:xlink="http://www.w3.org/1999/xlink">
 <defs>
  <style type="text/css">
   <![CDATA[
    .fil4 {fill:none}
    .fil12 {fill:#FEFEFE}
    .fil10 {fill:#1660DF}
    .fil8 {fill:#1662DF}
    .fil5 {fill:#1763DF}
    .fil2 {fill:#1F81E6}
    .fil9 {fill:#238EE8}
    .fil11 {fill:#279DEC}
    .fil6 {fill:#289EEC}
    .fil3 {fill:#2EB4F0}
    .fil1 {fill:#9DE4F5}
    .fil0 {fill:#FEF5DE}
    .fil13 {fill:url(#id17)}
    .fil7 {fill:url(#id18)}
   ]]>
  </style>
     <clipPath id="id0">
      <path d="M6.38119 5.4368l10.5072 0c0.657476,0 1.19542,0.537941 1.19542,1.19542l0 10.287c0,0.65748 -0.537941,1.19542 -1.19542,1.19542l-10.5072 0c-0.65748,0 -1.19542,-0.537941 -1.19542,-1.19542l0 -10.287c0,-0.657476 0.537941,-1.19542 1.19542,-1.19542z"/>
     </clipPath>
      <clipPath id="id1">
       <path d="M18.0838 9.11747l-12.898 0 0 -2.48526c0,-0.657476 0.537941,-1.19542 1.19542,-1.19542l10.5072 0c0.657476,0 1.19542,0.537941 1.19542,1.19542l0 2.48526z"/>
      </clipPath>
        <mask id="id2">
  <linearGradient id="id3" gradientUnits="userSpaceOnUse" x1="11.6348" y1="5.76776" x2="11.6348" y2="8.66069">
   <stop offset="0" style="stop-opacity:1; stop-color:white"/>
   <stop offset="1" style="stop-opacity:0; stop-color:white"/>
  </linearGradient>
         <rect style="fill:url(#id3)" x="4.53741" y="5.30751" width="14.1947" height="3.81343"/>
        </mask>
      <clipPath id="id4">
       <path d="M6.38119 5.4368l10.5072 0c0.657476,0 1.19542,0.537941 1.19542,1.19542l0 10.287c0,0.65748 -0.537941,1.19542 -1.19542,1.19542l-10.5072 0c-0.65748,0 -1.19542,-0.537941 -1.19542,-1.19542l0 -10.287c0,-0.657476 0.537941,-1.19542 1.19542,-1.19542z"/>
      </clipPath>
     <clipPath id="id5">
      <path d="M8.68331 5.20087c0.868701,0 1.57292,0.697185 1.57292,1.5572 0,0.860012 -0.70422,1.5572 -1.57292,1.5572 -0.868701,0 -1.57292,-0.697185 -1.57292,-1.5572 0,-0.860012 0.70422,-1.5572 1.57292,-1.5572z"/>
     </clipPath>
       <mask id="id6">
  <linearGradient id="id7" gradientUnits="userSpaceOnUse" x1="8.65185" y1="5.63689" x2="8.65185" y2="7.87925">
   <stop offset="0" style="stop-opacity:1; stop-color:white"/>
   <stop offset="1" style="stop-opacity:0; stop-color:white"/>
  </linearGradient>
        <rect style="fill:url(#id7)" x="7.07546" y="5.1974" width="3.1528" height="3.12134"/>
       </mask>
     <clipPath id="id8">
      <path d="M14.5975 5.20087c0.868705,0 1.57292,0.697185 1.57292,1.5572 0,0.860012 -0.704217,1.5572 -1.57292,1.5572 -0.868701,0 -1.57292,-0.697185 -1.57292,-1.5572 0,-0.860012 0.70422,-1.5572 1.57292,-1.5572z"/>
     </clipPath>
       <mask id="id9">
  <linearGradient id="id10" gradientUnits="userSpaceOnUse" x1="14.566" y1="5.63689" x2="14.566" y2="7.87925">
   <stop offset="0" style="stop-opacity:1; stop-color:white"/>
   <stop offset="1" style="stop-opacity:0; stop-color:white"/>
  </linearGradient>
        <rect style="fill:url(#id10)" x="12.9897" y="5.1974" width="3.15279" height="3.12134"/>
       </mask>
     <clipPath id="id11">
      <path d="M10.8534 12.6802c0.69511,-2.22411 0.897445,-2.09288 1.54933,0 2.43216,0.0516457 2.25049,0.0533386 0.487602,1.48642 0.609713,1.96081 0.754843,2.17365 -1.21905,0.880858 -2.01289,1.39456 -1.90246,1.05107 -1.29767,-0.896567 -2.21291,-1.55971 -1.33997,-1.52358 0.479783,-1.47071z"/>
     </clipPath>
       <mask id="id12">
  <linearGradient id="id13" gradientUnits="userSpaceOnUse" x1="11.6251" y1="12.2696" x2="11.6251" y2="14.6869">
   <stop offset="0" style="stop-opacity:1; stop-color:white"/>
   <stop offset="1" style="stop-opacity:0; stop-color:white"/>
  </linearGradient>
        <rect style="fill:url(#id13)" x="9.04065" y="11.0574" width="5.16883" height="4.84155"/>
       </mask>
     <clipPath id="id14">
      <path d="M17.2807 13.9818c1.86237,0 3.37212,1.50096 3.37212,3.35249 0,1.85153 -1.50976,3.35249 -3.37212,3.35249 -1.86237,0 -3.37212,-1.50096 -3.37212,-3.35249 0,-1.85153 1.50975,-3.35249 3.37212,-3.35249z"/>
     </clipPath>
       <mask id="id15">
  <linearGradient id="id16" gradientUnits="userSpaceOnUse" x1="17.2807" y1="15.7922" x2="17.2807" y2="18.8765">
   <stop offset="0" style="stop-opacity:1; stop-color:white"/>
   <stop offset="1" style="stop-opacity:0; stop-color:white"/>
  </linearGradient>
        <rect style="fill:url(#id16)" x="13.9051" y="13.9784" width="6.75119" height="6.71193"/>
       </mask>
  <linearGradient id="id17" gradientUnits="userSpaceOnUse" x1="17.7017" y1="15.6217" x2="17.7017" y2="18.7494">
   <stop offset="0" style="stop-color:#A1A1A1"/>
   <stop offset="1" style="stop-color:#727376"/>
  </linearGradient>
  <linearGradient id="id18" gradientUnits="userSpaceOnUse" xlink:href="#id17" x1="8.68331" y1="4.32787" x2="8.68331" y2="7.42654">
  </linearGradient>
 </defs>
 <g id="Layer_x0020_1">
  <metadata id="CorelCorpID_0Corel-Layer"/>
  <g id="_693860960">
   <path id="_693843896" class="fil0" d="M3.86515 12.4051c0.403941,0 0.731406,0.341551 0.731406,0.762866 0,0.421319 -0.327465,0.762866 -0.731406,0.762866 -0.403941,0 -0.731402,-0.341547 -0.731402,-0.762866 0,-0.421315 0.327461,-0.762866 0.731402,-0.762866zm6.30744 -4.15251c0.730732,0 1.03685,1.00386 -0.0885512,1.19543l-0.404953 0c-0.458516,0 -0.833642,0.375122 -0.833642,0.833638l0 1.5748e-005c0,0.00545669 0.000106299,0.0108937 0.000208661,0.0163189 -9.05512e-005,0.00502362 -0.000192913,0.010063 -0.000192913,0.0151142l0 1.5748e-005c0,0.458516 0.375122,0.833642 0.833642,0.833642l0.523165 0c1.39203,0.191575 0.401224,1.19543 -0.0906299,1.19543 -0.445539,0 -0.810055,0.364512 -0.810055,0.810055l0 0c0,0.445543 0.364516,0.810055 0.810055,0.810055l8.87132 0c0.445543,0 0.810055,-0.364512 0.810055,-0.810055l0 0c0,-0.445543 -0.364512,-0.810055 -0.810055,-0.810055 -0.730736,0 -1.03685,-1.00386 0.0885512,-1.19543l0.404953 0c0.458516,0 0.833638,-0.375126 0.833638,-0.833642l0 -1.5748e-005c0,-0.00545276 -0.000102362,-0.0108937 -0.000204724,-0.0163189 8.66142e-005,-0.00502362 0.000192913,-0.0100591 0.000192913,-0.0151142l0 -1.5748e-005c0,-0.458516 -0.375126,-0.833638 -0.833642,-0.833638l-0.523169 0c-1.39203,-0.191575 -0.40122,-1.19543 0.0906299,-1.19543 0.445543,0 0.810055,-0.364516 0.810055,-0.810055l0 0c0,-0.445543 -0.364512,-0.810055 -0.810055,-0.810055l-4.33408 0c0.000401575,-0.0104488 0.000653543,-0.0209252 0.000653543,-0.0314646l0 -1.5748e-005c0,-0.4585 -0.375138,-0.833638 -0.833638,-0.833638 -2.13001,0 -0.976276,-1.22689 -0.432555,-1.22689 0.445543,0 0.810055,-0.364512 0.810055,-0.810051l0 0c0,-0.445543 -0.364512,-0.810055 -0.810055,-0.810055l-8.87131 0c-0.445543,0 -0.810055,0.364512 -0.810055,0.810055l0 0c0,0.445539 0.364512,0.810051 0.810055,0.810051 0.807807,0 1.09685,1.22689 -0.493488,1.22689 -0.458516,0 -0.833642,0.375122 -0.833642,0.833638l0 1.5748e-005c0,0.458516 0.375126,0.833642 0.833642,0.833642l5.28316 0 -0.000102362 0.00787795 0 0c0,0.445539 0.364512,0.810055 0.810055,0.810055zm-6.22879 9.42181c0.807807,0 1.09685,-1.22688 -0.493488,-1.22688 -0.45852,0 -0.833642,-0.375126 -0.833642,-0.833642l0 -1.5748e-005c0,-0.458516 0.375122,-0.833638 0.833642,-0.833638l9.79736 0c0.458516,0 0.833638,0.375122 0.833638,0.833638l0 1.5748e-005c0,0.458504 -0.375138,0.833642 -0.833638,0.833642l-1.23457 0 0.321173 1.22688 0.480839 0c0.445543,0 0.810055,0.364512 0.810055,0.810055l0 0c0,0.445543 -0.364512,0.810055 -0.810055,0.810055l-8.87131 0c-0.445543,0 -0.810055,-0.364512 -0.810055,-0.810055l0 0c0,-0.445543 0.364512,-0.810055 0.810055,-0.810055z"/>
   <g>
    <path id="_693844256" class="fil1" d="M6.38119 5.4368l10.5072 0c0.657476,0 1.19542,0.537941 1.19542,1.19542l0 10.287c0,0.65748 -0.537941,1.19542 -1.19542,1.19542l-10.5072 0c-0.65748,0 -1.19542,-0.537941 -1.19542,-1.19542l0 -10.287c0,-0.657476 0.537941,-1.19542 1.19542,-1.19542z"/>
    <g style="clip-path:url(#id0)">
     <g>
      <polygon id="_6938487681" class="fil2" points="4.53091,5.31098 18.7187,5.31098 18.7187,9.11747 4.53091,9.11747 "/>
     </g>
     <g style="clip-path:url(#id1)">
      <g>
       <polygon id="_6938453602" class="fil3" style="mask:url(#id2)" points="4.54088,5.31098 18.7287,5.31098 18.7287,9.11747 4.54088,9.11747 "/>
      </g>
     </g>
     <g style="clip-path:url(#id4)">
      <polygon class="fil4" points="4.53091,5.31098 18.7187,5.31098 18.7187,9.11747 4.53091,9.11747 "/>
     </g>
    </g>
    <path class="fil4" d="M6.38119 5.4368l10.5072 0c0.657476,0 1.19542,0.537941 1.19542,1.19542l0 10.287c0,0.65748 -0.537941,1.19542 -1.19542,1.19542l-10.5072 0c-0.65748,0 -1.19542,-0.537941 -1.19542,-1.19542l0 -10.287c0,-0.657476 0.537941,-1.19542 1.19542,-1.19542z"/>
    <path id="_693858896" class="fil5" d="M8.68331 5.20087c0.868701,0 1.57292,0.697185 1.57292,1.5572 0,0.860012 -0.70422,1.5572 -1.57292,1.5572 -0.868701,0 -1.57292,-0.697185 -1.57292,-1.5572 0,-0.860012 0.70422,-1.5572 1.57292,-1.5572z"/>
    <g style="clip-path:url(#id5)">
     <g>
      <path id="_6938514321" class="fil6" style="mask:url(#id6)" d="M8.65185 5.20087c0.868697,0 1.57293,0.697185 1.57293,1.5572 0,0.860004 -0.704228,1.55719 -1.57293,1.55719 -0.868701,0 -1.57293,-0.697189 -1.57293,-1.55719 0,-0.860016 0.704224,-1.5572 1.57293,-1.5572z"/>
     </g>
    </g>
    <path class="fil4" d="M8.68331 5.20087c0.868701,0 1.57292,0.697185 1.57292,1.5572 0,0.860012 -0.70422,1.5572 -1.57292,1.5572 -0.868701,0 -1.57292,-0.697185 -1.57292,-1.5572 0,-0.860012 0.70422,-1.5572 1.57292,-1.5572z"/>
    <path id="_693848312" class="fil5" d="M14.5975 5.20087c0.868705,0 1.57292,0.697185 1.57292,1.5572 0,0.860012 -0.704217,1.5572 -1.57292,1.5572 -0.868701,0 -1.57292,-0.697185 -1.57292,-1.5572 0,-0.860012 0.70422,-1.5572 1.57292,-1.5572z"/>
    <g style="clip-path:url(#id8)">
     <g>
      <path id="_6938491761" class="fil6" style="mask:url(#id9)" d="M14.5661 5.20087c0.868701,0 1.57292,0.697185 1.57292,1.5572 0,0.860004 -0.704217,1.55719 -1.57292,1.55719 -0.868697,0 -1.57293,-0.697189 -1.57293,-1.55719 0,-0.860016 0.704228,-1.5572 1.57293,-1.5572z"/>
     </g>
    </g>
    <path class="fil4" d="M14.5975 5.20087c0.868705,0 1.57292,0.697185 1.57292,1.5572 0,0.860012 -0.704217,1.5572 -1.57292,1.5572 -0.868701,0 -1.57292,-0.697185 -1.57292,-1.5572 0,-0.860012 0.70422,-1.5572 1.57292,-1.5572z"/>
    <rect id="_693854264" class="fil7" x="7.99909" y="4.32788" width="1.36846" height="3.09867" rx="0.684228" ry="0.684228"/>
    <rect id="_693846416" class="fil7" x="13.9133" y="4.32788" width="1.36846" height="3.09867" rx="0.684228" ry="0.684228"/>
    <path id="_693854576" class="fil8" d="M10.8534 12.6802c0.69511,-2.22411 0.897445,-2.09288 1.54933,0 2.43216,0.0516457 2.25049,0.0533386 0.487602,1.48642 0.609713,1.96081 0.754843,2.17365 -1.21905,0.880858 -2.01289,1.39456 -1.90246,1.05107 -1.29767,-0.896567 -2.21291,-1.55971 -1.33997,-1.52358 0.479783,-1.47071z"/>
    <g style="clip-path:url(#id11)">
     <g>
      <path id="_6938576241" class="fil9" style="mask:url(#id12)" d="M10.8376 12.6802c0.69511,-2.22411 0.897445,-2.09288 1.54933,0 2.43215,0.0516457 2.25049,0.0533386 0.487598,1.48642 0.609709,1.96081 0.754843,2.17366 -1.21905,0.880866 -2.01288,1.39456 -1.90246,1.05107 -1.29767,-0.896571 -2.2129,-1.55971 -1.33997,-1.52358 0.479791,-1.47071z"/>
     </g>
    </g>
    <path class="fil4" d="M10.8534 12.6802c0.69511,-2.22411 0.897445,-2.09288 1.54933,0 2.43216,0.0516457 2.25049,0.0533386 0.487602,1.48642 0.609713,1.96081 0.754843,2.17365 -1.21905,0.880858 -2.01289,1.39456 -1.90246,1.05107 -1.29767,-0.896567 -2.21291,-1.55971 -1.33997,-1.52358 0.479783,-1.47071z"/>
   </g>
   <g>
    <path id="_693858968" class="fil10" d="M17.2807 13.9818c1.86237,0 3.37212,1.50096 3.37212,3.35249 0,1.85153 -1.50976,3.35249 -3.37212,3.35249 -1.86237,0 -3.37212,-1.50096 -3.37212,-3.35249 0,-1.85153 1.50975,-3.35249 3.37212,-3.35249z"/>
    <g style="clip-path:url(#id14)">
     <g>
      <path id="_6938679441" class="fil11" style="mask:url(#id15)" d="M17.2807 13.9818c1.86237,0 3.37212,1.50096 3.37212,3.35248 0,1.85154 -1.50975,3.3525 -3.37212,3.3525 -1.86236,0 -3.37212,-1.50096 -3.37212,-3.3525 0,-1.85152 1.50976,-3.35248 3.37212,-3.35248z"/>
     </g>
    </g>
    <path class="fil4" d="M17.2807 13.9818c1.86237,0 3.37212,1.50096 3.37212,3.35249 0,1.85153 -1.50976,3.35249 -3.37212,3.35249 -1.86237,0 -3.37212,-1.50096 -3.37212,-3.35249 0,-1.85153 1.50975,-3.35249 3.37212,-3.35249z"/>
    <ellipse id="_693848936" class="fil12" cx="17.2807" cy="17.3343" rx="2.27469" ry="2.26145"/>
   </g>
   <path id="_693846608" class="fil13" d="M17.5537 16.8469c0.16289,0.0950591 0.271354,0.264504 0.271354,0.457756 0,0.0456732 -0.00607874,0.0899921 -0.0174764,0.132335 0.00287008,0.00257087 0.00570866,0.00517323 0.0085,0.0078622l0.788713 0.76202c0.118217,0.114189 0.121917,0.30637 0.00569291,0.422594l-1.5748e-005 1.5748e-005c-0.11622,0.116224 -0.304394,0.119894 -0.422594,0.00567717l-0.788713 -0.762004c-0.0130039,-0.0125748 -0.0246102,-0.0260709 -0.0348071,-0.0402913 -0.0366654,0.0068937 -0.0745787,0.0105197 -0.113413,0.0105197 -0.317071,0 -0.574114,-0.241185 -0.574114,-0.538728 0,-0.196315 0.111925,-0.368079 0.279157,-0.462232l0 -0.921937c0,-0.164378 0.134472,-0.29885 0.29885,-0.29885l1.5748e-005 0c0.164378,0 0.29885,0.134472 0.29885,0.29885l0 0.926413z"/>
  </g>
 </g>
</svg>
