<?xml version="1.0"?>
<svg version="1.1" id="圖層_1" xmlns="http://www.w3.org/2000/svg" x="0" y="0" viewBox="0 0 100 100" xml:space="preserve"><path d="M70.563 87.167H29.437a5.058 5.058 0 0 1-5.058-5.058V17.891a5.058 5.058 0 0 1 5.058-5.058h41.127a5.058 5.058 0 0 1 5.058 5.058v64.217a5.06 5.06 0 0 1-5.059 5.059z" fill="#f5e6c8" stroke="#333" stroke-width="3" stroke-miterlimit="10"/><g><path d="M36 20.667a2.518 2.518 0 0 1-2.518-2.518v-7.964a2.518 2.518 0 1 1 5.036 0v7.964A2.518 2.518 0 0 1 36 20.667z" fill="#333"/><path d="M45.333 20.667a2.518 2.518 0 0 1-2.518-2.518v-7.964a2.518 2.518 0 1 1 5.036 0v7.964a2.518 2.518 0 0 1-2.518 2.518z" fill="#333"/><path d="M54.667 20.667a2.518 2.518 0 0 1-2.518-2.518v-7.964a2.518 2.518 0 1 1 5.036 0v7.964a2.519 2.519 0 0 1-2.518 2.518z" fill="#333"/><path d="M64 20.667a2.518 2.518 0 0 1-2.518-2.518v-7.964a2.518 2.518 0 1 1 5.036 0v7.964A2.518 2.518 0 0 1 64 20.667z" fill="#333"/></g><path fill="none" stroke="#333" stroke-width="3" stroke-miterlimit="10" d="M36 38h28"/><path fill="none" stroke="#333" stroke-width="3" stroke-miterlimit="10" d="M36 45h28"/><path fill="none" stroke="#333" stroke-width="3" stroke-miterlimit="10" d="M36 52h18"/><metadata xmlns:d="https://loading.io/stock/"><d:name>notebook</d:name><d:tags>textbook,memo,read,paper,binder,notebook,books</d:tags><d:license>by</d:license><d:slug>4uc34t</d:slug></metadata></svg>