<?xml version="1.0"?>
<svg version="1.1" id="圖層_1" xmlns="http://www.w3.org/2000/svg" x="0" y="0" viewBox="0 0 100 100" xml:space="preserve"><path d="M86.957 38.5H58.801v-13h28.156a3.511 3.511 0 0 1 3.511 3.511v5.979a3.512 3.512 0 0 1-3.511 3.51z" fill="#f47e60"/><path d="M86.957 56.5H58.801v-13h28.156a3.511 3.511 0 0 1 3.511 3.511v5.979a3.512 3.512 0 0 1-3.511 3.51z" fill="#abbd81"/><path d="M86.957 74.5H58.801v-13h28.156a3.511 3.511 0 0 1 3.511 3.511v5.979a3.512 3.512 0 0 1-3.511 3.51z" fill="#a0c8d7"/><path d="M75.189 7.5H22.946a6.213 6.213 0 0 0-6.213 6.213v72.575a6.213 6.213 0 0 0 6.213 6.213h52.243a6.213 6.213 0 0 0 6.213-6.213V13.713A6.213 6.213 0 0 0 75.189 7.5zM26.476 78.757a5.79 5.79 0 1 1 0-11.578 5.79 5.79 0 0 1 0 11.578zm0-15.187a5.79 5.79 0 1 1 0-11.578 5.79 5.79 0 0 1 0 11.578zm0-15.186a5.79 5.79 0 1 1 0-11.578 5.79 5.79 0 0 1 0 11.578zm0-15.186a5.79 5.79 0 1 1 0-11.578 5.79 5.79 0 0 1 0 11.578z" fill="#f8b26a"/><path d="M39.149 7.5H22.946a6.213 6.213 0 0 0-6.213 6.213v72.575a6.213 6.213 0 0 0 6.213 6.213h16.203V7.5zM26.476 21.62a5.79 5.79 0 1 1 0 11.578 5.79 5.79 0 0 1 0-11.578zm0 57.137a5.79 5.79 0 1 1 0-11.578 5.79 5.79 0 0 1 0 11.578zm0-15.187a5.79 5.79 0 1 1 0-11.578 5.79 5.79 0 0 1 0 11.578zm0-15.186a5.79 5.79 0 1 1 0-11.578 5.79 5.79 0 0 1 0 11.578z" fill="#c33737"/><g><g><path d="M26.476 30.797H12.922a3.39 3.39 0 0 1 0-6.778h13.555a3.39 3.39 0 1 1-.001 6.778z" fill="#e0e0e0"/></g><g><path d="M26.476 45.858H12.922a3.39 3.39 0 0 1 0-6.778h13.555a3.39 3.39 0 1 1-.001 6.778z" fill="#e0e0e0"/></g><g><path d="M26.476 60.919H12.922a3.39 3.39 0 0 1 0-6.778h13.555a3.39 3.39 0 1 1-.001 6.778z" fill="#e0e0e0"/></g><g><path d="M26.476 75.98H12.922a3.39 3.39 0 0 1 0-6.778h13.555a3.39 3.39 0 1 1-.001 6.778z" fill="#e0e0e0"/></g></g><metadata xmlns:d="https://loading.io/stock/"><d:name>contacts</d:name><d:tags>notebook,textbook,memo,read,paper,binder,contacts,books</d:tags><d:license>by</d:license><d:slug>jigda0</d:slug></metadata></svg>